<?xml version="1.0" ?><!DOCTYPE svg  PUBLIC '-//W3C//DTD SVG 1.1//EN'  'http://www.w3.org/Graphics/SVG/1.1/DTD/svg11.dtd'><svg enable-background="new 0 0 512 512" height="512px" version="1.1" viewBox="0 0 512 512" width="512px" xml:space="preserve" xmlns="http://www.w3.org/2000/svg" xmlns:xlink="http://www.w3.org/1999/xlink"><g id="Layer_3"><g><g><path d="M133.025,481.784c-10.898,15.089-25.321,23.295-32.199,18.328l0,0c-6.885-4.98-3.624-21.248,7.288-36.337     c0,0,178.478-237.384,196.257-275.212c17.78-37.835,75.607-100.997,75.607-100.997c10.912-15.099,25.334-23.305,32.216-18.328     l0,0c6.882,4.97-6.479,34.103-7.298,36.333c-0.818,2.234-20.443,59.319-66.77,99.668     C291.794,245.594,133.025,481.784,133.025,481.784z"/><path d="M395.352,90.924c-3.025,3.777-8.089,4.759-11.308,2.186L343.24,60.484c-3.227-2.57-3.379-7.721-0.368-11.498l0,0     c3.024-3.777,8.082-4.752,11.301-2.182l40.811,32.615C398.195,82,398.362,87.15,395.352,90.924L395.352,90.924z"/><path d="M369.122,114.815c-3.018,3.777-7.859,4.929-10.815,2.566l-37.425-29.916c-2.948-2.358-2.894-7.343,0.117-11.113l0,0     c3.024-3.781,7.867-4.929,10.815-2.57l37.426,29.917C372.195,106.061,372.14,111.035,369.122,114.815L369.122,114.815z"/><path d="M350.482,144.752c-3.025,3.777-8.033,4.804-11.183,2.286l-39.931-31.924c-3.156-2.518-3.26-7.624-0.235-11.401l0,0     c3.018-3.774,8.02-4.8,11.169-2.286l39.93,31.925C353.389,135.87,353.493,140.975,350.482,144.752L350.482,144.752z"/><path d="M329.032,172.459c-3.024,3.777-8.047,4.776-11.224,2.241l-40.264-32.185c-3.17-2.536-3.302-7.659-0.284-11.436l0,0     c3.018-3.781,8.047-4.783,11.218-2.241l40.27,32.181C331.918,163.559,332.05,168.679,329.032,172.459L329.032,172.459z"/><path d="M332.716,153.077c1.339-1.683,4.696-1.439,8.769,0.277l-39.09-31.234c-6.036-4.828-12.404-6.913-14.215-4.641     c-1.811,2.265,1.616,8.019,7.666,12.847l39.083,31.241C332.349,157.971,331.37,154.756,332.716,153.077z"/><path d="M354.18,125.946c1.346-1.679,4.683-1.443,8.748,0.267l-38.952-31.141c-6.021-4.814-12.39-6.885-14.2-4.616     c-1.804,2.265,1.609,8.009,7.631,12.823l38.966,31.141C353.798,130.83,352.841,127.625,354.18,125.946z"/><path d="M379.188,101.652c1.354-1.679,4.856-1.311,9.186,0.604L346.41,68.722c-6.486-5.186-13.229-7.554-15.033-5.29     c-1.811,2.269,1.971,8.304,8.478,13.497l41.956,33.534C378.973,106.668,377.842,103.328,379.188,101.652z"/></g><path d="M265.933,136.417c8.158,2.778,8.228-13.888,46.423-54.786c38.21-40.895,28.199-64.782,21.242-68.598    c-6.958-3.819-6.965,35.237-46.424,54.786C247.702,87.365,237.275,132.446,265.933,136.417z"/></g></g></svg>